<?xml version="1.0" standalone="no"?>
<!DOCTYPE svg PUBLIC "-//W3C//DTD SVG 20010904//EN"
 "http://www.w3.org/TR/2001/REC-SVG-20010904/DTD/svg10.dtd">
<svg version="1.0" xmlns="http://www.w3.org/2000/svg"
 width="631.000000pt" height="573.000000pt" viewBox="0 0 631.000000 573.000000"
 preserveAspectRatio="xMidYMid meet">
<metadata>
Created by potrace 1.16, written by Peter Selinger 2001-2019
</metadata>
<g transform="translate(0.000000,573.000000) scale(0.100000,-0.100000)"
fill="#000000" stroke="none">
<path d="M2355 5576 c-27 -7 -60 -18 -72 -24 -12 -7 -40 -12 -63 -12 -22 0
-76 -7 -118 -16 -48 -10 -98 -14 -134 -10 -51 5 -57 3 -63 -14 -5 -15 -16 -20
-48 -22 -23 0 -49 -1 -57 -2 -8 -1 -15 -8 -15 -16 0 -11 -17 -16 -70 -20 -38
-3 -99 -15 -135 -27 -36 -12 -96 -31 -135 -43 -64 -20 -165 -59 -207 -81 -45
-23 -55 -27 -83 -36 -16 -4 -30 -13 -30 -18 0 -17 62 -17 93 -1 16 8 70 18
123 21 52 3 106 8 120 10 17 3 35 -3 50 -16 18 -16 31 -19 54 -13 16 4 41 7
55 6 23 -1 68 -2 155 -3 104 -1 154 -5 166 -15 8 -5 45 -11 82 -13 38 -2 80
-9 94 -16 15 -8 38 -11 53 -9 17 4 31 0 39 -10 8 -9 29 -16 49 -16 23 0 52
-12 88 -35 30 -20 59 -32 68 -29 8 3 29 -4 45 -15 16 -12 34 -21 41 -21 7 0
24 -8 38 -19 15 -10 42 -22 59 -26 18 -3 37 -14 42 -23 6 -11 21 -16 49 -15
33 2 41 -2 50 -23 8 -15 20 -24 35 -24 13 0 32 -9 42 -20 10 -11 28 -20 41
-20 13 0 43 -13 67 -30 25 -16 51 -30 59 -30 16 0 58 -41 58 -56 0 -6 9 -29
20 -52 11 -22 20 -46 20 -52 0 -13 6 -13 30 2 15 10 22 9 38 -5 28 -25 32 -22
32 31 0 53 12 72 46 72 38 0 54 -26 54 -88 l0 -57 23 29 c20 25 26 27 45 17
20 -11 24 -8 48 46 44 99 48 105 64 110 8 3 43 18 76 34 34 16 65 29 70 29 5
0 20 9 34 20 14 11 33 20 42 20 10 0 25 12 35 26 14 22 22 25 53 20 31 -5 41
-2 60 19 13 14 33 25 45 25 12 0 30 9 40 20 10 11 28 20 40 20 12 0 34 9 48
20 14 11 32 17 41 14 8 -3 29 4 45 15 16 12 33 21 39 21 5 0 15 7 22 15 8 10
26 15 47 13 25 -2 39 3 49 16 10 14 21 17 46 12 23 -4 41 0 61 13 22 14 42 18
89 15 39 -3 67 1 76 9 13 11 48 14 157 17 17 1 47 -2 67 -5 25 -5 47 -2 69 9
28 14 34 14 52 1 28 -20 61 -19 78 1 12 14 31 16 134 12 78 -4 134 -11 159
-22 49 -20 96 -21 96 -1 0 8 -12 17 -27 21 -16 3 -50 16 -78 29 -27 13 -68 31
-90 40 -22 9 -59 25 -83 36 -23 10 -49 19 -57 19 -8 0 -59 14 -112 32 -70 23
-113 31 -149 29 -45 -2 -52 0 -57 18 -4 17 -13 21 -51 21 -32 0 -52 6 -65 19
-16 16 -29 18 -78 14 -33 -3 -84 0 -114 7 -30 7 -85 16 -124 20 -38 4 -90 15
-115 25 -34 13 -60 15 -116 10 -47 -5 -79 -3 -93 4 -18 10 -26 8 -48 -8 -16
-13 -41 -21 -66 -21 -23 0 -48 -7 -59 -16 -10 -10 -35 -17 -58 -17 -28 0 -41
-5 -45 -16 -8 -25 -44 -44 -60 -31 -9 8 -14 6 -18 -9 -4 -15 -17 -20 -73 -25
-93 -9 -100 -9 -174 5 -71 14 -227 15 -360 5 l-85 -7 -38 35 c-21 20 -46 36
-55 36 -10 0 -35 9 -57 20 -22 11 -55 20 -73 20 -19 0 -50 9 -68 21 -27 16
-37 18 -55 9 -20 -11 -55 -10 -104 3 -11 3 -42 0 -70 -7z m810 -236 c3 -5 25
-7 50 -3 38 5 46 2 67 -20 57 -61 87 -144 58 -162 -6 -4 -19 -23 -29 -44 -27
-52 -131 -117 -162 -101 -17 10 -49 64 -49 85 0 12 28 4 34 -10 9 -23 42 -18
65 11 16 20 21 41 21 85 0 64 -5 70 -61 75 -46 5 -89 -10 -89 -30 0 -16 -60
-57 -72 -50 -9 6 15 57 40 83 9 10 30 35 45 55 27 35 68 49 82 26z"/>
<path d="M1416 4965 c-9 -13 -16 -28 -16 -32 -1 -4 -26 -35 -57 -68 -30 -33
-62 -70 -70 -82 -31 -46 -83 -12 -83 53 0 40 -25 64 -44 43 -22 -23 -27 -64
-11 -85 19 -25 19 -69 -1 -99 -9 -13 -17 -34 -18 -47 -6 -50 -18 -87 -32 -99
-20 -17 -18 -102 6 -174 10 -33 24 -78 29 -100 6 -22 17 -49 25 -60 14 -20 15
-20 38 3 14 12 30 22 38 22 7 0 38 20 68 45 30 25 60 45 67 45 20 0 62 56 70
92 4 18 20 49 35 68 37 47 90 144 90 164 0 9 7 28 16 42 26 39 6 50 -49 24
-56 -26 -91 -20 -78 13 8 20 31 200 31 240 0 26 -35 21 -54 -8z"/>
<path d="M4703 4924 c-3 -9 -2 -24 4 -33 5 -9 27 -47 48 -86 21 -38 63 -106
93 -150 89 -131 88 -159 -2 -90 -75 57 -88 41 -31 -35 62 -82 174 -290 175
-323 0 -11 9 -30 20 -44 11 -14 20 -35 20 -47 0 -11 9 -34 20 -51 11 -16 20
-40 20 -52 0 -13 9 -37 20 -55 26 -43 25 -75 -2 -97 l-22 -18 22 -36 c16 -28
24 -66 32 -164 6 -71 16 -156 21 -190 13 -75 6 -100 -31 -116 -16 -7 -42 -29
-58 -49 -29 -36 -29 -39 -25 -130 4 -74 1 -110 -16 -172 -23 -88 -26 -116 -11
-116 15 0 60 53 60 71 0 21 51 88 68 89 15 0 12 17 19 -132 5 -126 5 -128 -20
-158 -23 -26 -25 -37 -20 -79 4 -35 0 -65 -16 -110 -11 -33 -21 -82 -21 -109
0 -26 -7 -60 -16 -77 -8 -16 -18 -50 -21 -75 -3 -25 -13 -58 -21 -75 -9 -16
-18 -48 -21 -70 -7 -49 -36 -60 -51 -21 -16 42 -35 31 -55 -31 -10 -32 -28
-80 -40 -108 -13 -27 -26 -57 -29 -65 -4 -8 -17 -33 -31 -55 -13 -22 -30 -51
-37 -65 -21 -42 -169 -190 -228 -228 -30 -20 -63 -46 -72 -57 -16 -19 -18 -19
-34 -3 -17 17 -17 19 5 42 29 30 23 63 -8 46 -27 -14 -107 -93 -121 -119 -6
-12 -17 -21 -26 -21 -19 0 -30 28 -15 43 17 17 13 37 -9 37 -13 0 -35 -22 -64
-62 -25 -35 -63 -86 -85 -114 -23 -28 -41 -54 -41 -58 0 -9 -80 -87 -110 -106
-12 -8 -38 -27 -58 -42 -19 -16 -43 -28 -52 -28 -10 0 -23 -7 -31 -16 -7 -9
-22 -14 -35 -11 -17 3 -34 -8 -67 -42 -50 -53 -115 -140 -143 -191 -20 -39
-64 -142 -64 -152 0 -10 168 1 246 17 40 8 83 15 96 15 13 0 35 6 50 14 15 8
42 17 60 21 18 4 44 16 57 26 13 11 34 19 47 19 12 0 26 5 30 11 3 6 25 19 49
29 24 10 46 23 49 29 4 6 14 11 23 11 9 0 49 27 89 60 40 33 75 60 79 60 4 0
25 15 48 34 75 60 186 109 287 125 75 13 160 59 160 87 0 9 -22 14 -76 16
-104 4 -113 18 -55 84 23 27 49 60 58 74 20 34 81 80 98 74 20 -8 26 -46 10
-70 -19 -29 -29 -89 -18 -108 19 -34 75 34 89 110 4 21 27 56 64 96 51 56 58
69 62 116 3 29 12 60 20 70 20 21 94 168 103 202 4 14 15 43 25 65 10 22 28
61 39 86 12 25 21 53 21 61 0 8 5 19 11 25 5 5 18 25 27 44 23 46 47 48 72 7
24 -40 25 -74 4 -128 -9 -22 -14 -47 -10 -55 5 -13 10 -12 31 7 14 12 25 27
25 33 0 7 9 23 19 37 16 20 21 47 26 139 3 63 11 130 17 150 9 33 7 41 -26 92
-19 31 -45 62 -56 69 -24 16 -28 77 -5 111 8 13 17 56 21 97 4 41 15 92 25
112 11 21 19 46 19 56 0 30 24 55 46 48 36 -11 57 -62 51 -120 -12 -101 25
-101 49 1 18 76 17 112 -2 148 -10 17 -17 57 -18 93 -2 60 -4 65 -39 95 -47
41 -54 63 -56 175 0 51 -5 101 -10 111 -6 10 -13 42 -16 72 -4 30 -15 75 -26
101 -31 76 -21 156 17 133 14 -9 34 -62 63 -165 3 -14 11 -23 16 -20 16 8 6
284 -11 326 -13 32 -92 93 -120 94 -7 0 -25 -14 -42 -31 -17 -17 -35 -28 -41
-25 -5 4 -13 27 -17 52 -3 25 -13 51 -21 59 -8 8 -18 37 -22 64 -4 27 -15 61
-24 75 -10 14 -17 33 -17 43 0 10 -9 29 -20 43 -11 14 -20 31 -20 39 0 8 -7
22 -15 31 -20 22 -75 127 -75 143 0 7 -5 18 -11 24 -18 18 -58 121 -74 191
-32 136 -60 137 -60 2 0 -103 -9 -118 -47 -77 -62 66 -99 109 -156 185 -35 45
-65 82 -68 82 -2 0 -7 -7 -11 -16z"/>
<path d="M1996 4915 c-11 -8 -36 -15 -55 -15 -20 -1 -47 -7 -61 -15 -14 -8
-42 -14 -63 -15 -22 0 -52 -8 -69 -17 -29 -17 -30 -20 -26 -77 3 -33 10 -62
16 -64 7 -2 12 -10 12 -17 0 -7 18 -34 40 -61 26 -31 41 -62 45 -88 8 -48 0
-69 -55 -156 -9 -14 -26 -51 -38 -83 -27 -73 -30 -209 -6 -280 11 -32 12 -51
6 -64 -24 -44 -52 -146 -52 -188 0 -49 1 -51 30 -33 17 11 25 10 48 -2 22 -13
28 -24 30 -60 2 -25 -4 -68 -14 -97 -10 -29 -15 -55 -11 -59 3 -4 18 2 33 12
15 11 33 24 41 29 11 7 19 4 30 -12 21 -31 30 -29 47 12 8 19 22 38 31 41 12
5 15 26 15 118 0 107 -1 113 -25 134 -37 32 -33 67 15 113 22 22 40 48 40 59
0 10 10 58 22 106 21 83 21 89 6 153 -9 36 -20 81 -23 98 -4 18 -11 35 -16 38
-13 9 -11 52 3 75 10 15 10 27 1 51 -14 36 -10 49 16 49 10 0 26 11 35 25 9
14 24 25 34 25 10 0 32 15 50 33 49 51 42 115 -15 146 -13 6 -26 24 -29 39
-14 56 -50 76 -88 47z"/>
<path d="M4292 4918 c-7 -7 -12 -19 -12 -26 0 -8 -20 -37 -45 -63 -27 -29 -45
-58 -45 -72 0 -36 41 -90 83 -110 20 -9 37 -21 37 -27 0 -5 12 -15 28 -22 26
-13 27 -17 29 -88 1 -51 -5 -93 -18 -132 -25 -75 -28 -298 -4 -318 8 -7 15
-20 15 -30 0 -9 10 -30 23 -46 20 -26 22 -37 18 -124 -6 -145 -5 -180 4 -248
9 -68 26 -88 49 -56 13 17 15 17 50 -4 21 -12 46 -22 57 -22 18 0 19 4 13 38
-4 20 -13 52 -20 71 -19 45 -18 64 5 92 17 21 22 22 40 12 28 -17 48 -16 55 3
10 27 -5 127 -26 171 -22 44 -22 48 -2 216 9 74 -8 151 -51 242 -26 54 -35 86
-38 140 -4 77 6 107 53 162 39 44 50 125 23 162 -16 20 -32 27 -74 32 -30 4
-67 12 -83 18 -16 6 -36 9 -46 6 -9 -3 -28 4 -43 15 -28 23 -57 26 -75 8z"/>
<path d="M968 4310 c-28 -17 -32 -66 -8 -105 17 -28 19 -38 9 -56 -9 -17 -13
-19 -20 -8 -5 8 -9 24 -9 37 0 46 -34 19 -73 -58 -36 -71 -38 -83 -48 -210
-11 -151 -6 -208 20 -242 10 -13 21 -47 24 -77 5 -44 13 -61 42 -91 30 -31 35
-43 35 -83 0 -35 -5 -51 -22 -67 -42 -39 -53 -28 -56 58 -4 86 -20 122 -55
122 -25 0 -67 -38 -67 -59 0 -8 16 -31 35 -52 44 -49 49 -93 6 -55 -9 7 -26
17 -37 20 -20 6 -22 2 -29 -51 -13 -100 -10 -195 8 -228 10 -17 17 -52 17 -83
0 -61 8 -80 61 -140 21 -24 48 -63 59 -88 14 -28 37 -53 65 -71 46 -30 65 -58
65 -99 0 -14 6 -37 14 -52 8 -15 17 -44 21 -65 10 -50 -15 -60 -54 -23 -22 21
-30 39 -34 81 -3 30 -8 59 -12 65 -18 29 -95 -10 -95 -48 0 -10 14 -29 30 -44
19 -16 30 -36 30 -52 0 -23 -3 -25 -30 -19 -29 5 -30 4 -30 -29 0 -19 5 -39
12 -46 8 -8 15 -57 18 -123 4 -81 10 -114 21 -123 22 -17 74 -103 108 -179 58
-129 155 -197 282 -197 53 0 59 -3 96 -39 21 -22 47 -57 57 -78 11 -21 23 -46
28 -56 5 -11 7 -21 5 -23 -6 -6 -58 16 -80 35 -9 8 -27 19 -39 25 -13 6 -28
22 -34 35 -20 40 -30 45 -64 31 -33 -14 -50 -53 -33 -79 6 -9 32 -21 58 -28
32 -8 57 -22 71 -40 l22 -28 -44 -5 c-58 -8 -73 -23 -49 -50 10 -11 30 -26 43
-33 14 -7 28 -19 32 -27 56 -122 78 -145 200 -202 74 -35 133 -86 149 -131 8
-21 15 -22 102 -23 52 0 121 -5 154 -10 l60 -9 -3 -36 c-4 -49 23 -69 87 -64
57 5 81 -6 62 -29 -8 -9 -19 -16 -27 -16 -7 0 -18 -9 -24 -21 -13 -23 2 -49
27 -49 8 0 29 -6 46 -14 18 -7 61 -26 97 -41 36 -15 77 -40 92 -56 21 -23 32
-27 60 -23 25 4 49 -3 101 -30 76 -40 137 -47 175 -21 12 9 45 19 73 22 61 7
139 47 139 71 -1 38 -31 97 -104 206 -75 112 -133 176 -160 176 -8 0 -19 7
-26 15 -7 8 -24 15 -37 15 -14 0 -36 9 -50 20 -18 14 -41 20 -75 20 -35 0 -58
6 -75 20 -14 11 -35 20 -47 20 -12 0 -45 21 -75 47 -49 42 -56 46 -81 36 -35
-13 -45 -7 -65 40 -8 20 -34 58 -58 84 -23 27 -64 77 -91 113 -65 86 -126 141
-211 193 -38 23 -87 60 -108 82 -37 38 -40 39 -53 20 -8 -10 -14 -24 -15 -29
0 -6 -4 -2 -8 9 -5 11 -4 30 0 43 23 61 3 94 -59 96 l-37 1 -5 115 c-3 80 -10
124 -21 145 -9 17 -29 57 -44 90 -41 92 -56 116 -97 165 -21 25 -44 64 -51 85
-9 25 -24 45 -40 53 -16 8 -27 21 -27 33 0 33 -19 59 -43 59 -31 0 -49 -33
-41 -75 7 -40 -2 -75 -21 -75 -20 0 -65 69 -65 99 0 15 15 38 40 62 50 47 80
104 80 149 0 20 9 53 20 75 15 30 20 59 20 125 0 47 7 107 15 135 19 63 11
199 -12 191 -24 -10 -25 22 -2 54 13 17 33 33 46 36 12 3 25 15 29 26 9 28
-41 78 -78 78 -34 0 -47 24 -26 48 33 38 68 113 68 143 0 18 7 40 15 49 30 33
65 112 65 147 0 20 7 45 17 55 11 12 16 33 15 62 -2 33 2 45 15 50 10 4 31 14
46 22 36 20 34 58 -4 87 -34 25 -63 11 -79 -38 -6 -19 -15 -35 -19 -35 -6 0
-45 -38 -111 -109 -20 -21 -24 -21 -37 -8 -13 12 -13 21 -3 51 12 36 6 80 -10
74 -5 -2 -19 -18 -32 -37 -31 -46 -56 -61 -68 -41 -12 20 -3 89 15 117 20 29
19 46 -2 71 -22 25 -53 34 -75 22z m177 -790 c4 -6 -12 -40 -35 -75 -23 -35
-45 -76 -49 -92 -6 -24 -13 -28 -41 -28 l-34 0 3 60 c1 41 7 63 18 70 8 6 34
24 57 42 42 33 70 41 81 23z m346 -1650 c14 -8 19 -21 19 -49 0 -24 9 -52 25
-75 47 -69 21 -98 -55 -60 -29 15 -90 70 -90 82 0 8 71 112 76 112 3 0 14 -5
25 -10z m715 -677 c6 -13 22 -34 35 -47 82 -84 81 -91 -11 -83 -60 5 -73 10
-94 34 -23 26 -23 30 -10 62 28 66 57 78 80 34z"/>
<path d="M2520 4250 c-14 -14 -20 -33 -20 -68 0 -60 -12 -72 -69 -72 -67 0
-78 -10 -63 -54 10 -28 10 -39 0 -55 -17 -27 -64 -46 -109 -42 -33 2 -37 -1
-43 -26 -12 -46 -4 -1413 8 -1421 6 -4 36 -5 67 -3 69 3 82 -10 89 -93 5 -58
6 -61 33 -64 21 -3 32 -13 44 -38 12 -23 24 -34 39 -34 43 0 46 -18 48 -243 1
-177 4 -217 17 -237 9 -14 19 -43 23 -65 4 -22 13 -49 20 -60 7 -11 18 -39 24
-62 7 -24 17 -43 21 -43 5 0 11 -10 15 -22 3 -13 22 -48 42 -78 20 -30 40 -64
44 -75 5 -11 50 -69 100 -130 51 -60 97 -120 102 -132 22 -46 43 -36 138 67
49 54 90 105 90 113 0 9 -8 22 -18 29 -10 7 -26 24 -35 38 -16 24 -16 25 15
57 37 38 55 41 91 13 36 -29 45 -76 18 -101 -12 -11 -21 -28 -21 -39 0 -24
168 -206 189 -203 9 1 21 9 26 19 6 9 41 56 80 103 38 47 73 91 77 96 4 6 19
24 33 41 14 18 25 37 25 43 0 6 8 19 18 29 10 10 24 32 31 50 7 18 17 32 22
32 5 0 9 5 9 12 0 6 9 31 20 55 11 24 29 63 40 87 12 24 23 62 26 83 3 21 13
54 22 73 13 28 16 74 17 227 2 201 6 223 47 223 12 0 24 12 34 36 14 32 18 36
44 31 41 -9 53 11 45 71 -9 65 9 80 95 84 l65 3 3 705 c1 388 0 720 -3 737 -6
32 -6 33 -66 32 -32 -1 -66 4 -74 11 -8 6 -15 34 -17 63 l-3 52 -55 5 c-30 3
-61 9 -67 13 -8 5 -13 29 -13 58 0 36 -5 54 -20 69 -20 20 -33 20 -680 20
-647 0 -660 0 -680 -20z m-98 -516 c11 -24 75 -60 87 -49 3 3 10 20 16 38 9
28 14 32 45 32 31 0 37 -4 55 -43 18 -39 22 -42 34 -28 7 9 21 16 31 16 9 0
22 11 28 25 14 31 37 41 57 25 25 -21 18 -56 -17 -85 -18 -15 -38 -44 -43 -64
l-10 -35 -133 -2 -133 -2 -12 46 c-9 35 -18 47 -40 54 -31 11 -44 46 -27 77
15 29 48 27 62 -5z m1172 10 c9 -8 16 -22 16 -29 0 -17 6 -21 46 -29 29 -7 33
-4 50 31 12 24 27 39 41 41 23 3 34 -6 63 -55 19 -32 19 -32 50 -16 17 8 36
26 42 39 12 26 31 36 52 28 38 -15 24 -74 -23 -94 -24 -10 -31 -19 -31 -40 0
-40 -26 -63 -64 -57 -17 2 -45 0 -63 -5 -18 -5 -39 -5 -46 -1 -6 4 -32 8 -56
8 -45 0 -55 8 -65 55 -3 14 -19 33 -36 42 -24 14 -30 24 -30 52 0 30 9 43 32
45 4 1 14 -6 22 -15z m-602 -214 c17 -16 41 -30 54 -30 22 0 64 34 64 52 0 4
26 8 58 8 52 0 62 -3 87 -30 40 -41 77 -38 126 11 38 38 109 15 94 -30 -15
-47 -36 -51 -311 -48 l-258 2 -16 28 c-14 27 -14 29 9 48 32 27 56 24 93 -11z
m-446 5 c7 -17 49 -20 59 -5 15 24 35 9 35 -26 0 -42 15 -74 35 -74 15 0 35
-30 35 -53 0 -7 -15 -20 -32 -28 -30 -13 -33 -18 -36 -64 -3 -47 -1 -51 28
-68 38 -23 38 -49 0 -89 -26 -26 -30 -39 -30 -85 0 -48 3 -54 25 -63 14 -5 30
-21 35 -35 20 -53 31 -26 30 78 -1 56 3 127 8 157 8 42 7 59 -4 75 -18 25 -18
69 0 84 19 16 45 3 52 -25 10 -38 28 -47 49 -24 10 11 28 20 40 20 21 0 22 -4
21 -81 -1 -61 -5 -83 -17 -92 -9 -7 -23 -25 -31 -41 l-15 -29 -6 32 c-6 27
-11 32 -29 29 -19 -2 -25 -12 -32 -50 -12 -61 4 -101 37 -96 17 2 23 11 27 38
l6 35 7 -33 c4 -21 15 -36 32 -44 14 -6 28 -22 31 -35 8 -31 30 -24 26 8 -5
35 -7 326 -2 369 1 8 2 32 3 52 2 21 8 43 14 49 15 15 410 19 429 4 20 -16 27
-77 25 -205 -1 -30 2 -92 5 -137 5 -58 3 -92 -6 -113 -9 -23 -10 -34 -2 -42 8
-8 14 -4 21 15 6 15 15 27 20 27 25 0 41 34 41 85 0 46 -4 58 -27 79 -26 24
-27 28 -16 68 9 34 8 46 -4 64 -27 42 2 58 44 24 14 -11 29 -20 33 -20 3 0 17
18 29 41 29 51 55 50 59 -4 2 -21 -2 -45 -8 -52 -7 -9 -9 -23 -4 -37 11 -29
11 -30 13 -170 1 -110 11 -146 26 -98 4 11 20 27 36 35 25 13 29 21 29 56 0
30 -6 46 -26 64 -16 15 -28 39 -31 64 -5 36 -3 41 26 55 27 15 31 21 31 59 0
39 -3 45 -32 58 -27 12 -34 20 -36 51 -3 29 1 38 18 43 30 10 52 48 44 79 -6
24 -4 26 28 26 19 0 40 -6 47 -12 10 -11 14 -10 22 5 6 9 19 17 29 17 17 0 20
-7 20 -50 0 -32 5 -54 15 -62 38 -32 45 -40 45 -57 0 -9 -13 -21 -30 -28 -28
-11 -30 -14 -30 -65 0 -56 12 -78 42 -78 30 0 22 -47 -13 -79 -28 -26 -30 -32
-27 -92 3 -60 5 -64 28 -67 25 -4 70 -59 70 -87 0 -7 11 -22 25 -33 17 -13 25
-30 25 -50 0 -25 5 -30 29 -35 38 -8 55 -37 37 -63 -13 -17 -51 -18 -869 -22
-620 -3 -861 -1 -876 7 -23 13 -28 50 -9 69 7 7 25 12 40 12 24 0 28 4 28 29
0 16 7 34 16 42 9 7 25 33 36 58 31 72 33 75 59 81 20 5 24 13 27 51 4 59 -11
99 -38 99 -12 0 -20 7 -20 18 0 9 -3 26 -6 37 -4 17 1 22 28 30 31 9 33 13 36
58 3 53 -8 74 -41 79 -18 2 -21 9 -19 33 2 17 7 31 11 33 33 12 46 33 47 78 3
60 0 54 24 54 11 0 23 -7 26 -15z m769 -1063 c109 -39 202 -116 240 -200 9
-20 23 -50 32 -66 25 -45 20 -207 -7 -253 -11 -19 -20 -40 -20 -46 0 -20 -116
-143 -152 -161 -18 -10 -46 -25 -62 -33 -40 -21 -181 -29 -247 -13 -103 24
-192 99 -262 220 -31 53 -32 59 -32 165 1 104 2 113 33 171 33 64 120 164 142
164 8 0 21 6 29 14 54 49 217 69 306 38z"/>
<path d="M3150 2295 c-14 -8 -31 -14 -38 -15 -22 0 -80 -49 -101 -86 -32 -54
-29 -161 5 -220 44 -74 101 -98 230 -95 84 2 174 108 174 206 0 56 -28 120
-69 159 -55 53 -156 78 -201 51z"/>
<path d="M146 3104 c-9 -8 -18 -15 -21 -14 -25 1 -26 -5 -22 -82 3 -46 8 -96
11 -113 4 -16 13 -99 20 -182 8 -84 18 -158 22 -165 4 -6 13 -37 19 -67 l11
-56 74 2 c80 2 90 -3 90 -48 0 -14 4 -29 10 -35 5 -5 14 -34 20 -63 5 -30 17
-68 25 -84 8 -17 15 -37 15 -46 0 -9 8 -32 18 -51 10 -19 24 -55 32 -79 13
-42 13 -44 -9 -62 -13 -11 -32 -19 -42 -19 -11 0 -25 -11 -31 -26 -10 -21 -8
-32 9 -67 11 -23 39 -82 63 -132 23 -49 46 -98 52 -109 33 -61 52 -93 64 -107
8 -8 14 -19 14 -23 0 -4 17 -30 38 -59 21 -29 56 -77 77 -107 21 -30 61 -82
89 -114 28 -33 57 -67 63 -75 23 -29 128 -136 163 -166 142 -121 340 -266 400
-292 8 -3 26 -15 39 -25 13 -10 30 -18 37 -18 8 0 23 -9 34 -20 31 -31 65 -25
96 15 31 41 45 43 99 11 60 -37 157 -86 168 -86 5 0 20 -9 34 -20 14 -11 38
-20 53 -20 15 0 33 -6 39 -14 7 -8 23 -17 36 -20 34 -9 38 -34 15 -96 l-20
-55 32 -27 c18 -15 40 -28 48 -28 8 0 32 -9 53 -20 20 -11 47 -20 59 -20 13
-1 41 -9 63 -20 22 -11 51 -19 66 -20 29 0 49 -17 49 -42 0 -10 5 -18 10 -18
6 0 9 -12 8 -27 -3 -27 -1 -28 50 -31 41 -2 52 0 52 12 0 8 -5 18 -11 21 -5 4
-8 12 -7 17 5 13 137 21 152 9 20 -16 291 -32 532 -32 225 0 474 14 495 27 30
18 68 21 97 7 30 -15 33 -14 72 17 45 36 73 36 78 1 3 -21 0 -23 -22 -19 -21
4 -31 -1 -47 -23 -25 -35 -15 -42 57 -37 l49 3 3 45 c4 50 16 70 43 70 10 0
33 9 51 20 18 11 46 20 61 20 16 0 40 9 54 20 14 11 34 20 45 20 23 0 64 26
72 46 5 13 -2 38 -27 91 -14 30 5 73 32 73 11 0 32 6 48 14 15 8 69 33 118 56
96 45 104 49 150 80 56 38 75 37 108 -3 33 -42 62 -47 98 -18 13 10 35 22 48
26 14 4 46 22 71 39 25 17 53 36 62 41 267 168 536 427 683 656 6 9 31 47 56
85 44 64 70 108 100 165 6 13 16 31 21 39 8 16 17 34 51 110 11 25 28 62 39
83 27 54 18 78 -37 100 -27 12 -45 25 -45 35 0 21 30 101 47 127 7 11 13 29
13 41 0 12 9 41 20 65 11 24 20 58 20 75 0 16 7 39 15 50 8 10 15 31 15 45 0
43 21 53 87 41 68 -12 83 -7 83 23 0 13 9 51 19 86 12 38 22 114 26 189 4 69
14 149 21 178 8 29 14 83 14 120 l0 68 -45 12 c-25 7 -63 12 -85 12 -53 0 -56
-8 -70 -195 -11 -154 -25 -263 -40 -325 -5 -19 -11 -47 -15 -62 -10 -49 -28
-58 -86 -43 -28 8 -60 21 -70 31 -21 19 -21 19 -24 -46 -5 -93 -84 -349 -118
-381 -28 -26 -16 -46 46 -78 34 -18 47 -30 47 -46 0 -20 -54 -132 -120 -250
-129 -232 -355 -503 -590 -709 -156 -137 -338 -270 -384 -282 -43 -10 -85 51
-66 96 21 51 -9 69 -34 21 -12 -22 -53 -48 -187 -115 -145 -74 -178 -87 -212
-84 -49 4 -60 -15 -18 -30 23 -8 33 -20 42 -50 17 -57 6 -86 -38 -105 -166
-72 -497 -151 -753 -178 -131 -15 -519 -5 -650 16 -300 48 -611 135 -662 186
-27 27 -27 28 -13 74 7 26 15 48 17 49 2 1 16 6 32 11 45 15 32 30 -27 30 -45
0 -70 10 -192 74 -77 41 -150 79 -162 85 -12 6 -29 23 -38 38 -9 16 -23 28
-32 28 -15 0 -15 -12 2 -65 4 -14 -3 -31 -24 -55 l-30 -35 -43 24 c-189 104
-562 437 -718 641 -173 226 -350 522 -350 587 0 12 20 30 55 51 30 18 55 37
55 43 0 5 -8 17 -18 27 -17 17 -88 224 -112 329 -6 29 -9 61 -5 73 8 24 -18
38 -38 21 -21 -17 -96 -41 -111 -35 -33 13 -60 144 -87 409 -11 116 -23 213
-27 216 -4 4 -31 9 -59 12 -39 5 -56 2 -67 -9z"/>
<path d="M3056 693 c-3 -4 -26 -6 -49 -5 -39 2 -47 -2 -89 -43 -25 -25 -53
-45 -62 -45 -9 0 -16 -4 -16 -10 0 -16 40 -12 46 5 10 26 24 6 17 -25 -7 -37
3 -37 46 0 22 18 32 34 28 44 -5 13 1 16 28 16 18 0 37 5 40 10 3 6 19 10 35
10 34 0 47 15 30 35 -13 16 -42 20 -54 8z"/>
<path d="M3303 694 c-7 -3 -13 -14 -13 -25 0 -14 7 -19 29 -19 17 0 33 -5 37
-11 4 -7 23 -8 53 -4 45 7 45 6 29 -12 -14 -15 -15 -22 -6 -31 7 -7 17 -12 23
-12 5 0 16 -9 23 -20 7 -11 17 -20 22 -20 16 0 11 32 -6 45 -15 11 -15 12 4
17 13 4 20 1 19 -5 -1 -6 8 -13 21 -15 12 -2 22 1 22 7 0 6 -6 11 -13 11 -7 0
-32 20 -56 45 -36 38 -50 45 -81 45 -21 0 -50 2 -66 5 -16 2 -35 2 -41 -1z"/>
</g>
</svg>
